<?xml version="1.0" encoding="utf-8"?>
<!-- Generator: Adobe Illustrator 19.0.0, SVG Export Plug-In . SVG Version: 6.00 Build 0)  -->
<svg version="1.1" id="Ebene_1" xmlns="http://www.w3.org/2000/svg" xmlns:xlink="http://www.w3.org/1999/xlink" x="0px" y="0px"
	 viewBox="0 0 536 300.9" style="enable-background:new 0 0 536 300.9;" xml:space="preserve">
<style type="text/css">
	.st0{fill:#FFFFFF;}
	.st1{fill:#4FBED0;stroke:#FFFFFF;stroke-width:6;stroke-miterlimit:10;}
	.st2{fill:#4FBED0;}
	.st3{fill:#ED6F75;}
	.st4{fill:#51BFD1;stroke:#FFFFFF;stroke-width:8;stroke-miterlimit:10;}
	.st5{display:none;fill:#FFFFFF;}
</style>
<g id="XMLID_951_">
	<g id="XMLID_954_">
		<path id="XMLID_969_" class="st0" d="M4,224.3c0-8.6,1.6-17.4,4.9-26.3c3.3-8.9,7.9-17.4,14-25.4c6-8,13.3-15.1,21.9-21.4
			c8.5-6.3,18.1-11,28.6-14.3c-5.4-4.4-10.5-9-15.2-13.9c-4.7-4.8-8.8-9.8-12.3-14.9S39.6,98,37.6,92.9c-2-5.1-3-10.2-3-15.3
			c0-6.6,0.7-12.8,2.1-18.8c1.4-5.9,3.4-11.4,5.9-16.5c2.5-5.1,5.5-9.6,8.9-13.7c3.4-4.1,7.1-7.6,11.1-10.4
			c3.9-2.9,8.1-5.1,12.4-6.6c4.3-1.5,8.6-2.3,12.9-2.3c5.7,0,11.3,1.5,16.6,4.4c5.3,3,10,7.7,14.2,14.1c4.1,6.4,7.5,14.8,9.9,25
			c2.5,10.2,3.7,22.6,3.7,37.1c0,4.4-0.6,12.2-1.9,23.6c-1.2,11.3-2.4,22.2-3.5,32.7c3.9,2.4,7.8,4.8,11.8,7.1c4,2.3,8,4.6,12.1,6.9
			c0.8,0.5,1.9,1.1,3.1,1.8c1.2,0.7,2.5,1.5,3.6,2.3c1.2,0.8,2.2,1.6,3,2.4c0.8,0.8,1.2,1.5,1.2,2.2c0,0.6-0.3,1.3-0.8,1.9
			c-0.5,0.6-1.2,1.2-1.9,1.7c-0.7,0.5-1.5,1-2.2,1.4c-0.7,0.4-1.3,0.7-1.7,0.9c-1.1,0.6-2.5,0.9-4.2,0.9c-3.6-0.1-7.8-0.8-12.6-2.1
			c-4.8-1.3-9.7-3.2-14.7-5.6c-2.8,11.8-6.2,22.5-10.1,32.3c-3.9,9.8-8.2,18.5-12.8,26.3c-4.6,7.8-9.6,14.5-14.8,20.3
			c-5.2,5.8-10.4,10.5-15.8,14.4c-5.3,3.8-10.6,6.7-15.9,8.6c-5.3,1.9-10.3,2.9-15.1,2.9c-5,0-9.7-1-14-3.1c-4.3-2-8-5.1-11.2-9.1
			c-3.2-4-5.7-9-7.5-15C4.9,239.2,4,232.3,4,224.3z M28.5,230.4c0,6.5,1.3,11.4,3.8,14.8c2.5,3.3,5.8,5,10,5c4.2,0,9-1.8,14.3-5.5
			c5.3-3.7,10.6-9.4,16-17.1c5.3-7.7,10.5-17.6,15.3-29.5c4.9-11.9,9-26.1,12.4-42.5l-3.5-2.2c-6.5,1.3-12.7,3.5-18.6,6.6
			c-5.9,3.2-11.4,6.9-16.4,11.2c-5.1,4.3-9.6,9.1-13.7,14.3c-4.1,5.2-7.6,10.4-10.5,15.7c-2.9,5.3-5.1,10.5-6.7,15.5
			C29.2,221.8,28.5,226.4,28.5,230.4z M59,71.4c0,5.1,1.1,10.2,3.3,15.2c2.2,5,5.3,10,9.4,14.9c4,4.9,8.8,9.8,14.3,14.7
			c5.5,4.8,11.6,9.6,18.3,14.3c0.7-8.9,1.5-18.2,2.4-28c0.8-9.8,1.2-20.1,1.2-31.2c0-7.5-0.5-13.9-1.4-19.1c-1-5.2-2.2-9.4-3.9-12.7
			c-1.6-3.2-3.5-5.6-5.7-7c-2.2-1.4-4.5-2.1-6.9-2.1c-2.4,0-4.7,0.6-7.2,1.7C80.4,33.4,78,35,75.7,37c-2.3,2-4.5,4.3-6.5,7
			c-2,2.7-3.8,5.5-5.3,8.5c-1.5,3-2.7,6.1-3.6,9.4C59.5,65.1,59,68.3,59,71.4z"/>
		<path id="XMLID_966_" class="st0" d="M266.2,201.4l2.1-11.5c-3.4,3-7,5.5-10.7,7.3c-3.7,1.9-7.3,2.8-10.8,2.8
			c-3.1,0-6-0.6-8.9-1.9c-2.9-1.2-5.5-3-7.7-5.3c-2.2-2.3-4-5.2-5.3-8.5c-1.3-3.3-2-7.1-2-11.3c0-5.5,0.4-10.6,1.1-15.2
			c0.8-4.6,1.7-10.3,2.8-17.1c1.1-6.8,2.4-12.1,4-16c1.5-3.9,3.3-7.9,5.3-11.9c1.5-2.9,3.6-5,6.3-6.5c2.7-1.5,5.4-2.2,8-2.2
			c2.2,0,4.1,0.6,5.7,1.7c1.6,1.1,2.4,2.8,2.4,5.2c0,0.7-0.1,1.5-0.2,2.3c-0.2,0.8-0.4,1.7-0.8,2.7c-1.1,2.9-2.1,6.4-2.8,10.5
			c-0.8,4-1.8,9.4-3.1,16.1c-1.3,6.7-2.3,12.1-3.1,16c-0.8,3.9-1.1,7.5-1.1,10.5c0,1.6,0.1,3.2,0.3,4.7c0.2,1.5,0.6,2.9,1.2,4.1
			c0.6,1.2,1.3,2.2,2.3,2.9c1,0.7,2.2,1.1,3.6,1.1c2.4,0,4.5-1,6.4-3.1c1.9-2.1,3.6-4.5,5-7.4c1.4-2.9,2.5-5.9,3.4-8.9
			c0.9-3.1,1.4-5.6,1.7-7.7l7.7-35.7c0.4-2.1,1.3-4,2.7-5.7c1.3-1.7,2.8-3.1,4.5-4.3c1.7-1.2,3.5-2.1,5.4-2.6
			c1.8-0.6,3.6-0.9,5.3-0.9c2,0,3.6,0.4,5,1.3c1.3,0.9,2,2.2,2,4.1c0,0.6-0.1,1.2-0.3,2c-0.3,1.7-0.7,4-1.2,6.8
			c-0.5,2.9-1.1,6.1-1.7,9.7c-0.6,3.6-1.5,8.7-2.7,15.3s-2.1,11.9-2.8,15.9c-1.6,9.5-3.3,19.6-4.9,30.5c1.9-1.1,4-2.4,6.3-4
			c2.2-1.6,4.7-3.7,7.5-6.4c2.7-2.7,5.8-6,9.2-10.1c3.4-4,7.2-9.1,11.4-15.1l4.6,21.3c-1.1,2-2.6,4-4.4,6c-1.9,2.2-3.9,4.2-6.1,6.3
			c-3.2,2.9-5.5,4.9-6.9,5.9c-0.4,0.3-2.8,2.1-7,5.5c-1.3,1.1-5.5,4-12.6,8.8c-1.7,1.1-2.9,3.2-3.6,6.3c-0.6,3-1.4,8.6-2.2,16.9
			c-0.4,2.3-0.6,4.1-0.7,5.4c-0.4,3-0.8,5.9-1.1,8.7c-0.3,2.8-1,5.9-1.9,9.4c-0.9,3.5-1.9,6.8-3.1,9.7c-1.2,3-2.8,5.9-4.8,8.8
			c-2,2.9-4.1,5.4-6.5,7.5c-2.4,2.1-5.3,3.7-8.6,5c-3.4,1.3-7.1,1.9-11.1,1.9c-3.2,0-6.2-0.4-9-1.1c-2.8-0.7-5.3-1.9-7.6-3.4
			c-2.3-1.5-4.2-3.6-5.6-6.3c-1.5-2.6-2.3-5.7-2.6-9.3c-0.5-6.7,1.3-13.9,5.5-21.4c2.4-4.2,4-7.1,5-8.7c1-1.6,2.5-4,4.5-7
			c2-3,4.2-5.7,6.4-8.1c4.5-5,8.1-9.1,11-12.1C258.7,208.2,262.2,204.9,266.2,201.4z M266.5,224.4c-4.5,3.2-8.9,8.3-13.2,15.3
			c-4.3,7-7.8,14.1-10.3,21.4c-2.1,6.1-1.1,9.2,3.1,9.2c1.5,0,2.9-0.2,4.1-0.6c1.2-0.4,2.3-1.1,3.3-2.1c1-1,1.9-2.1,2.7-3.2
			c0.8-1.2,1.6-2.8,2.4-5c0.9-2.1,1.6-4.2,2.3-6.3c0.7-2.1,1.5-4.8,2.5-8.3c0.6-1.8,1-3.9,1.3-6.2c0.3-2.3,0.6-5,1-8.2
			C266.2,227.4,266.4,225.3,266.5,224.4z"/>
		<path id="XMLID_964_" class="st0" d="M351.2,199.8c-5.9,0-11.1-1.1-15.5-3.2c-4.5-2.2-8.2-5.1-11.2-8.7c-3-3.6-5.3-7.8-6.8-12.6
			c-1.5-4.8-2.3-9.7-2.3-14.9c0-3.7,0.6-8.1,1.9-13.3c1.3-5.2,2.7-9.7,4.2-13.5c1.5-3.9,3.4-7.5,5.6-11c2.2-3.5,4.8-6.6,7.7-9.2
			c2.9-2.6,6.2-4.7,9.7-6.3c3.6-1.6,7.5-2.3,11.8-2.3c3.9,0,7.4,0.6,10.7,1.7c3.3,1.1,6.1,2.7,8.4,4.6c2.3,2,4.2,4.3,5.5,7
			c1.3,2.7,2,5.6,2,8.7c0,2.2-0.3,4.3-0.9,6.4c-0.6,2.1-1.8,4.6-3.6,7.4c-1.8,2.8-3.5,4.8-5.2,5.8c-1.7,1-3.6,1.5-5.7,1.5
			c-3.2,0-5.3-0.8-6.2-2.4c-1.5-2.5-2-4.7-1.5-6.6c0.2-1,0.8-3.4,1.7-7.1c0.1-0.5,0.2-1.7,0.1-3.4c0-1.5-0.2-2.8-0.5-3.8
			c-0.3-1-1-1.5-2.1-1.5c-2.6,0-4.8,0.6-6.7,1.9c-1.8,1.2-3.4,2.9-4.7,4.9c-1.3,2-2.6,4.8-3.9,8.5c-1.3,3.7-2.2,6.7-2.7,9.2
			c-0.5,2.5-0.9,4.9-1,7.1c-0.1,2.3-0.2,4.2-0.2,5.7c0,2.3,0.2,4.7,0.6,7.2c0.4,2.5,1.2,4.8,2.5,6.8c1.2,2.1,2.8,3.8,4.8,5.2
			c2,1.4,4.5,2.1,7.6,2.1c3.1,0,6.4-0.9,10.1-2.8c3.7-1.9,7.4-4.2,11.1-7.1c3.7-2.9,7.3-6,10.7-9.5c3.4-3.4,6.3-6.7,8.7-9.7
			l6.6,11.1c-4.8,6.8-9.9,12.9-15.5,18.2c-2.4,2.3-4.9,4.5-7.7,6.7c-2.8,2.2-5.7,4.1-8.7,5.8c-3,1.7-6.2,3.1-9.5,4.1
			C357.9,199.3,354.6,199.8,351.2,199.8z"/>
		<path id="XMLID_961_" class="st0" d="M425.5,199.8c-5.9,0-11.1-1.1-15.6-3.3c-4.5-2.2-8.2-5.2-11.1-8.9c-3-3.7-5.2-8-6.7-12.9
			c-1.5-4.9-2.2-10-2.2-15.4c0-3.5,0.7-7.7,2-12.6c1.3-4.9,2.7-9.2,4.1-13c1.4-3.8,3.2-7.4,5.4-10.8c2.2-3.4,4.7-6.4,7.6-9
			c2.9-2.6,6.1-4.7,9.7-6.2c3.6-1.5,7.6-2.3,11.9-2.3c3.6,0,6.9,0.6,9.9,1.7c3.1,1.1,5.7,2.8,8,4.8c2.3,2.1,4,4.6,5.3,7.5
			c1.3,2.9,1.9,6.2,1.9,9.8c0,3.9-1.3,8.2-3.9,13c-2.6,4.8-5.6,8.9-9,12.3c-3.4,3.4-7.5,6.5-12.3,9.2c-4.8,2.7-9.9,4.8-15.5,6.3
			c1,1.7,1.9,3.1,2.8,4.2c0.9,1.1,1.9,2,2.8,2.6c1,0.6,2,1.1,3,1.3c1.1,0.2,2.2,0.4,3.4,0.4c3.8,0,7.8-0.7,12.1-2.2
			c4.2-1.5,8.4-3.4,12.4-5.6c4-2.2,7.8-4.7,11.4-7.3c3.6-2.6,6.6-5.2,9.1-7.5l11.5,11.1c-5.6,6-10.8,12.6-17.1,17.2
			c-2.7,2-5.7,3.9-8.8,5.8c-3.2,1.9-6.5,3.6-9.9,5.1c-3.5,1.5-7.1,2.7-10.8,3.5C433.1,199.4,429.4,199.8,425.5,199.8z M412.8,154.3
			c2.3,0,4.8-0.6,7.5-1.7c2.7-1.2,5.2-2.6,7.6-4.4c2.3-1.8,4.6-4.2,6.9-7.3c2.2-3,3.4-5.6,3.4-7.6c0-2.8-0.5-5.1-1.6-6.9
			c-1.1-1.8-2.3-2.7-3.9-2.7c-2.7,0-5.1,0.5-7,1.5c-2,1-3.6,2.3-4.9,3.9c-1.3,1.6-2.4,3.4-3.2,5.4s-1.7,4.5-2.8,7.5
			c-1.1,3-1.6,5.4-1.8,7.4C412.8,151.3,412.8,152.9,412.8,154.3z"/>
		<path id="XMLID_958_" class="st0" d="M462.8,163.7c3.6-3.1,6.5-5.7,8.7-7.7c2.2-2.1,4.5-4.5,6.7-7.2c2.2-2.7,4-5,5.3-6.7
			c1.3-1.7,2.8-3.8,4.6-6.2c1.8-2.4,3.9-5.3,6.5-8.7c2.5-3.4,5.9-7.7,9.9-12.9c0.8-1.2,1.7-2.3,2.8-3.4c1-1.1,2.1-2.1,3.4-2.9
			c1.2-0.9,2.6-1.6,4.1-2.1c1.5-0.5,3.2-0.8,5-0.8c3.1,0,5.4,0.3,7.1,1c1.7,0.7,2.9,1.5,3.6,2.5c0.8,1,1.2,2,1.3,3
			c0.1,1.1,0.2,2,0.2,2.8c0,1.5-0.6,3.2-1.8,5.1c-1.2,1.9-2.5,3.7-4,5.4c-1.5,1.7-2.8,3.3-4.2,4.8c-1.3,1.4-2.1,2.5-2.2,3.2
			c0,2,0.1,3.8,0.4,5.5c0.3,1.6,0.7,3.3,1.2,4.8c0.5,1.6,1,3.3,1.5,5c0.5,1.8,1,3.8,1.5,6.1c0.5,2.3,1,7,0.9,11.1
			c0,4.2,0,6.2-0.4,10.2c-0.7,7.7-4.4,14.6-7.7,18.5c-2.8,3.2-5.6,4.3-6.9,4.8c-5.5,2.1-11.3,1.7-16.6,1.7c-3.8,0-7.3-0.3-10.5-1
			c-3.2-0.7-6.1-1.7-8.5-3.2c-2.5-1.4-4.4-3.3-6-5.6c-1.5-2.3-2.5-5.1-2.8-8.4c-0.9,0.2-1.8,0.3-2.6,0.4c-0.9,0.1-1.7,0.1-2.5,0.1
			c-1,0-2,0-2.9-0.1c-0.9-0.1-1.7-0.3-2.3-0.7c-0.6-0.4-1.1-1.1-1.5-2c-0.4-0.9-0.6-2.3-0.6-4c0-1.5,0.4-3,1.1-4.3s1.7-2.5,2.7-3.5
			c1-1,2-1.9,3.1-2.7C461.5,164.8,462.2,164.2,462.8,163.7z M474.7,176.1c0.8,0,1.6,0.5,2.5,1.4c0.9,1,2,2,3.2,3.2
			c1.2,1.2,2.6,2.2,4.2,3.2c1.6,1,3.4,1.4,5.4,1.4c2.5,0,4.5-0.4,6.2-1.3c1.6-0.8,2.9-1.9,3.9-3.3c1-1.4,1.9-2.9,2.6-4.6
			c0.8-2.4,1.4-8.1,1.4-11.1c0.3-4.7-1.4-11.6-1.8-13.1c-0.4-1.4-0.8-2.7-1.1-3.7L474.7,176.1z"/>
		<g id="XMLID_955_">
			<path id="XMLID_956_" class="st0" d="M230.8,128.3c-4-4.8-8.3-8.7-12.9-11.9c-4.6-3.2-9.6-5.7-14.9-7.5c-5.3-1.9-11-2.8-17-2.8
				c-7.1,0-13.4,1.3-19.1,3.9c-5.7,2.6-10.5,6.1-14.4,10.6c-3.9,4.5-6.9,9.8-9,15.9c-2.1,6.1-3.2,13.3-3.2,21.7
				c0,5.1,0.6,10.1,1.8,15.1c1.2,5,3,9.4,5.6,13.4c2.5,3.9,5.8,7.1,9.8,9.6c4,2.5,8.8,3.7,14.4,3.7c3.9,0,7.5-0.7,11-2
				c3.4-1.3,6.6-3.2,9.5-5.4c2.9-2.3,5.5-5,7.7-8.1c2.3-3.1,4.2-6.5,5.7-10c1.6-3.6,2.8-7.3,3.6-11.1c0.8-3.8,1.2-7.6,1.2-11.4
				c0-5.2,1.5-8.7,0.6-12.8c-0.9-4.1,0.5-5.5-1.4-9.2l0.8-1.1c2.3,1.5,0.2-0.2,3.4,2c3.2,2.3,6.4,5,9.7,8.3c3.3,3.2,6.4,6.2,9.3,8.9
				c2.9,2.7,5.3,5.2,7,7.5l1.8-13.5C238.5,137.6,234.8,133,230.8,128.3z"/>
		</g>
	</g>
	<path id="XMLID_953_" class="st0" d="M484.3,168.2"/>
	<path id="XMLID_952_" class="st0" d="M182.7,177.2"/>
</g>
<g id="XMLID_948_">
	<path id="XMLID_949_" class="st1" d="M176.5,182c3.6-0.3,6.9-1.7,10.1-4.3c3.2-2.6,5.9-5.7,8.1-9.4s3.9-8.1,5-13.2
		c1.1-5.1,1.5-9.6,1.2-13.5c-0.3-3.1-0.9-5.9-1.8-8.5c-1-2.6-2.2-4.8-3.9-6.6c-1.6-1.8-3.6-3.2-6-4.1c-2.4-0.9-5.2-1.3-8.5-1
		c-4.3,0.4-8.3,1.9-12,4.5c-3.7,2.7-6.9,5.9-9.5,9.8c-2.6,3.9-4.6,8.1-5.9,12.6c-1.3,4.5-1.7,9.6-1.3,15.1c0.2,2.8,0.9,5.4,1.9,7.8
		c1,2.4,2.5,4.5,4.5,6.1c1.9,1.7,4.4,3,7.4,3.8C168.8,182.1,172.4,182.4,176.5,182z"/>
</g>
<g id="XMLID_228_">
	<polygon id="XMLID_232_" class="st2" points="149.7,217 201.2,166.2 151.3,144.9 	"/>
	<path id="XMLID_229_" class="st0" d="M147.3,222.7l1.8-81.3l56.2,24L147.3,222.7z M153.6,148.4l-1.4,62.8l44.9-44.3L153.6,148.4z"
		/>
</g>
<g id="XMLID_197_">
	<polygon id="XMLID_201_" class="st3" points="203.9,90.3 153.2,140.5 203,161.8 	"/>
	<path id="XMLID_198_" class="st0" d="M205.3,165.4l-56.2-24.1l57.3-56.7L205.3,165.4z M157.3,139.7l43.4,18.6l0.8-62.3L157.3,139.7
		z"/>
</g>
<g id="XMLID_57_">
	<circle id="XMLID_196_" class="st4" cx="176.3" cy="153.9" r="20.2"/>
	<path id="XMLID_154_" class="st5" d="M182.3,176.6c-11.9,1.8-24-4.7-28.7-16.4c-2.6-6.6-2.6-13.8,0.2-20.4
		c2.8-6.5,8-11.6,14.6-14.2c6.6-2.6,13.8-2.6,20.4,0.2c6.5,2.8,11.6,8,14.2,14.6l0,0c2.6,6.6,2.6,13.8-0.2,20.4
		c-2.8,6.5-8,11.6-14.6,14.2C186.2,175.8,184.3,176.3,182.3,176.6z M175.9,134.3c-1.2,0.2-2.4,0.5-3.6,1c-4,1.6-7.1,4.7-8.8,8.6
		c-1.7,4-1.7,8.3-0.1,12.3c3.3,8.3,12.7,12.3,21,9c4-1.6,7.1-4.7,8.8-8.6c1.7-4,1.7-8.3,0.1-12.3l0,0c-1.6-4-4.7-7.1-8.6-8.8
		C181.8,134.3,178.8,133.9,175.9,134.3z"/>
</g>
</svg>
